<svg id="Object" xmlns="http://www.w3.org/2000/svg" xmlns:xlink="http://www.w3.org/1999/xlink" viewBox="0 0 1200 1200"><defs><clipPath id="clip-path"><circle cx="600" cy="600" r="545" transform="translate(-248.53 600) rotate(-45)" style="fill:#c9d5ef"/></clipPath></defs><title>J-V35-Audi-Gift-17-socialmedia-v</title><circle cx="600" cy="600" r="545" transform="translate(-248.53 600) rotate(-45)" style="fill:#c9d5ef"/><g style="clip-path:url(#clip-path)"><rect x="685.83" y="180.74" width="111.71" height="111.71" rx="55.3" style="fill:#e47e3d"/><rect x="242.21" y="351.94" width="188.2" height="188.2" rx="93.16" style="fill:#e47e3d"/><rect x="280.45" y="272.22" width="111.71" height="111.71" rx="55.3" style="fill:#e47e3d"/><rect x="833.17" y="300.9" width="111.71" height="111.71" rx="55.3" style="fill:#e47e3d"/><rect x="334.1" y="179.31" width="147.34" height="147.34" rx="72.93" style="fill:#e47e3d"/><rect x="442.1" y="129.8" width="147.34" height="147.34" rx="72.93" style="fill:#e47e3d"/><rect x="564.29" y="153.56" width="147.34" height="147.34" rx="72.93" style="fill:#e47e3d"/><rect x="741.69" y="236.59" width="147.34" height="147.34" rx="72.93" style="fill:#e47e3d"/><rect x="772.01" y="353.85" width="193.56" height="193.56" rx="95.81" style="fill:#e47e3d"/><path d="M913,894.47c-16.33-87.81-102.39-154.81-206.15-154.81H499.1c-103.76,0-189.82,67-206.15,154.81a166,166,0,0,0-2.83,30.31v253.3q0,12.74.58,24.31a352.06,352.06,0,0,0,3.54,35.93,217.15,217.15,0,0,0,10.11,41c5.18,14.27,11.66,26.11,19.3,35.93,37.25,47.88,101.91,47.9,175.45,47.9H706.85c73.54,0,138.2,0,175.45-47.9,7.64-9.82,14.13-21.66,19.3-35.93a217.88,217.88,0,0,0,10.12-41,352.19,352.19,0,0,0,3.53-35.93q.59-11.6.59-24.31V924.78A165.11,165.11,0,0,0,913,894.47Z" style="fill:#d5c6b7"/><ellipse cx="602.98" cy="847.33" rx="87.54" ry="65.1" style="fill:#fbd7b5"/><path d="M857.35,493.74h-.78a38.74,38.74,0,0,0-13.24,2.37V461.46C843.33,326.53,734,217.14,599,217.14h-4.94c-134.93,0-244.32,109.39-244.32,244.32v34.65a38.69,38.69,0,0,0-13.23-2.37h-.78A38.79,38.79,0,0,0,297,532.53v23.19a38.79,38.79,0,0,0,38.79,38.79h.78a38.45,38.45,0,0,0,13.23-2.37v15.42c0,134.93,109.39,244.31,244.32,244.31H599c134.93,0,244.31-109.38,244.31-244.31V592.14a38.5,38.5,0,0,0,13.24,2.37h.78a38.79,38.79,0,0,0,38.79-38.79V532.53A38.79,38.79,0,0,0,857.35,493.74Z" style="fill:#fbd7b5"/><ellipse cx="469.68" cy="305.12" rx="172.26" ry="101.89" transform="translate(-73.04 166.74) rotate(-18.7)" style="fill:#e47e3d"/><circle cx="673.8" cy="269.52" r="65.11" style="fill:#e47e3d"/><circle cx="753.23" cy="321.22" r="62.71" transform="translate(-41.73 124.8) rotate(-9.22)" style="fill:#e47e3d"/><circle cx="852.57" cy="421.63" r="79.95" style="fill:#e47e3d"/></g><path d="M664.23,220.73a21.13,21.13,0,0,1-21.13,21.12H590.56a21.13,21.13,0,0,1-21.12-21.12h0a21.13,21.13,0,0,1,21.12-21.13H643.1a21.13,21.13,0,0,1,21.13,21.13Z" style="fill:#e47e3d"/><path d="M846.76,356.5a27.15,27.15,0,0,1-27.15,27.16h0a27.15,27.15,0,0,1-27.15-27.16V344.44a27.15,27.15,0,0,1,27.15-27.16h0a27.15,27.15,0,0,1,27.15,27.16Z" style="fill:#e47e3d"/></svg>